<svg version="1.2" xmlns="http://www.w3.org/2000/svg" viewBox="0 0 5000 2916" width="5000" height="2916">
	<title>det4-ai</title>
	<defs>
		<clipPath clipPathUnits="userSpaceOnUse" id="cp1">
			<path d="m1242.43 427.37c538.48 0 975 436.52 975 975 0 538.48-436.52 975-975 975-538.48 0-975-436.52-975-975 0-538.48 436.52-975 975-975z"/>
		</clipPath>
		<linearGradient id="g1" x2="1" gradientUnits="userSpaceOnUse" gradientTransform="matrix(1700.024,-1290,1290.001,1700.024,-294.07,853.44)">
			<stop offset="0" stop-color="#dbdcdc"/>
			<stop offset="1" stop-color="#ffffff"/>
		</linearGradient>
		<clipPath clipPathUnits="userSpaceOnUse" id="cp2">
			<path d="m3862.43 507.37c538.48 0 975 436.52 975 975 0 538.48-436.52 975-975 975-538.47 0-975-436.52-975-975 0-538.48 436.53-975 975-975z"/>
		</clipPath>
		<linearGradient id="g2" x2="1" gradientUnits="userSpaceOnUse" gradientTransform="matrix(-1139.99,1990.002,-1990.003,-1139.99,5457.883,1374.29)">
			<stop offset="0" stop-color="#dbdcdc"/>
			<stop offset="1" stop-color="#ffffff"/>
		</linearGradient>
		<clipPath clipPathUnits="userSpaceOnUse" id="cp3">
			<path d="m2639.93 107.37c189.16 0 342.51 153.34 342.51 342.5 0 189.16-153.35 342.5-342.51 342.5-189.15 0-342.5-153.34-342.5-342.5 0-189.16 153.35-342.5 342.5-342.5z"/>
		</clipPath>
		<linearGradient id="g3" x2="1" gradientUnits="userSpaceOnUse" gradientTransform="matrix(-400.476,699.051,-699.051,-400.476,3200.399,411.907)">
			<stop offset="0" stop-color="#dbdcdc"/>
			<stop offset="1" stop-color="#ffffff"/>
		</linearGradient>
		<clipPath clipPathUnits="userSpaceOnUse" id="cp4">
			<path d="m2355.29 1951.65c208.12 0 376.82 168.71 376.82 376.82 0 208.12-168.7 376.83-376.82 376.83-208.11 0-376.82-168.71-376.82-376.83 0-208.11 168.71-376.82 376.82-376.82z"/>
		</clipPath>
		<linearGradient id="g4" x2="1" gradientUnits="userSpaceOnUse" gradientTransform="matrix(657.008,-498.568,498.569,657.009,1761.457,2116.331)">
			<stop offset="0" stop-color="#dbdcdc"/>
			<stop offset="1" stop-color="#ffffff"/>
		</linearGradient>
		<clipPath clipPathUnits="userSpaceOnUse" id="cp5">
			<path d="m3914.93 197.37c269.24 0 487.5 218.26 487.5 487.5 0 269.24-218.26 487.5-487.5 487.5-269.24 0-487.5-218.26-487.5-487.5 0-269.24 218.26-487.5 487.5-487.5z"/>
		</clipPath>
		<linearGradient id="g5" x2="1" gradientUnits="userSpaceOnUse" gradientTransform="matrix(-569.981,995.002,-995.001,-569.981,4712.662,630.809)">
			<stop offset="0" stop-color="#dbdcdc"/>
			<stop offset="1" stop-color="#ffffff"/>
		</linearGradient>
		<clipPath clipPathUnits="userSpaceOnUse" id="cp6">
			<path d="m1682.43 904.87c269.24 0 487.5 218.26 487.5 487.5 0 269.24-218.26 487.5-487.5 487.5-269.24 0-487.5-218.26-487.5-487.5 0-269.24 218.26-487.5 487.5-487.5z"/>
		</clipPath>
		<linearGradient id="g6" x2="1" gradientUnits="userSpaceOnUse" gradientTransform="matrix(-569.979,995.001,-995.002,-569.979,2480.156,1338.319)">
			<stop offset="0" stop-color="#dbdcdc"/>
			<stop offset="1" stop-color="#ffffff"/>
		</linearGradient>
	</defs>
	<style>
		.s0 { fill: #ffffff } 
		.s1 { fill: url(#g1) } 
		.s2 { fill: url(#g2) } 
		.s3 { fill: url(#g3) } 
		.s4 { fill: url(#g4) } 
		.s5 { fill: url(#g5) } 
		.s6 { fill: url(#g6) } 
	</style>
	<g id="_Artboards_">
	</g>
	<g id="Layer 1">
		<g id="&lt;Group&gt;">
			<path id="&lt;Path&gt;" class="s0" d="m0 0h5000v2916h-5000z"/>
			<g id="&lt;Clip Group&gt;" clip-path="url(#cp1)">
				<path id="&lt;Path&gt;" class="s1" d="m267.4 2377.4h1950v-1950h-1950z"/>
			</g>
			<g id="&lt;Clip Group&gt;" clip-path="url(#cp2)">
				<path id="&lt;Path&gt;" class="s2" d="m2887.4 2457.4h1950v-1950h-1950z"/>
			</g>
			<g id="&lt;Clip Group&gt;" clip-path="url(#cp3)">
				<path id="&lt;Path&gt;" class="s3" d="m2297.4 792.4h685v-685h-685z"/>
			</g>
			<g id="&lt;Clip Group&gt;" clip-path="url(#cp4)">
				<path id="&lt;Path&gt;" class="s4" d="m1978.5 2705.3h753.6v-753.6h-753.6z"/>
			</g>
			<g id="&lt;Clip Group&gt;" clip-path="url(#cp5)">
				<path id="&lt;Path&gt;" class="s5" d="m3427.4 1172.4h975v-975h-975z"/>
			</g>
			<g id="&lt;Clip Group&gt;" clip-path="url(#cp6)">
				<path id="&lt;Path&gt;" class="s6" d="m1194.9 1879.9h975v-975h-975z"/>
			</g>
		</g>
	</g>
</svg>