<svg version="1.2" xmlns="http://www.w3.org/2000/svg" viewBox="0 0 2599 1733" width="2599" height="1733">
	<title>SL-112122-54030-05-ai</title>
	<defs>
		<clipPath clipPathUnits="userSpaceOnUse" id="cp1">
			<path d="m2598.08 1732.05h-2598.08v-1732.05h2598.08z"/>
		</clipPath>
		<radialGradient id="g1" cx="0" cy="0" r="1" gradientUnits="userSpaceOnUse" gradientTransform="matrix(425.3,0,0,425.3,2213.199,496.531)">
			<stop offset=".222" stop-color="#a7cccc"/>
			<stop offset="1" stop-color="#ffffff"/>
		</radialGradient>
		<linearGradient id="g2" x2="1" gradientUnits="userSpaceOnUse" gradientTransform="matrix(207.805,-159.111,159.111,207.805,1895.82,294.836)">
			<stop offset="0" stop-color="#294f4f"/>
			<stop offset="1" stop-color="#c5ebeb"/>
		</linearGradient>
		<radialGradient id="g3" cx="0" cy="0" r="1" gradientUnits="userSpaceOnUse" gradientTransform="matrix(22.017,154.143,-154.143,22.017,2234.431,344.98)">
			<stop offset="0" stop-color="#d9ffff"/>
			<stop offset=".292" stop-color="#739999"/>
			<stop offset="1" stop-color="#000000"/>
		</radialGradient>
		<radialGradient id="g4" cx="0" cy="0" r="1" gradientUnits="userSpaceOnUse" gradientTransform="matrix(35.639,151.569,-151.569,35.639,2174.998,140.538)">
			<stop offset="0" stop-color="#d9ffff"/>
			<stop offset=".292" stop-color="#739999"/>
			<stop offset="1" stop-color="#000000"/>
		</radialGradient>
		<radialGradient id="g5" cx="0" cy="0" r="1" gradientUnits="userSpaceOnUse" gradientTransform="matrix(358.638,0,0,358.638,129.615,1758.717)">
			<stop offset=".222" stop-color="#a7cccc"/>
			<stop offset="1" stop-color="#ffffff"/>
		</radialGradient>
		<linearGradient id="g6" x2="1" gradientUnits="userSpaceOnUse" gradientTransform="matrix(175.232,-134.172,134.172,175.232,-138.017,1588.636)">
			<stop offset="0" stop-color="#294f4f"/>
			<stop offset="1" stop-color="#c5ebeb"/>
		</linearGradient>
		<radialGradient id="g7" cx="0" cy="0" r="1" gradientUnits="userSpaceOnUse" gradientTransform="matrix(18.566,129.983,-129.983,18.566,147.519,1630.92)">
			<stop offset="0" stop-color="#d9ffff"/>
			<stop offset=".292" stop-color="#739999"/>
			<stop offset="1" stop-color="#000000"/>
		</radialGradient>
		<radialGradient id="g8" cx="0" cy="0" r="1" gradientUnits="userSpaceOnUse" gradientTransform="matrix(30.053,127.812,-127.812,30.053,97.401,1458.523)">
			<stop offset="0" stop-color="#d9ffff"/>
			<stop offset=".292" stop-color="#739999"/>
			<stop offset="1" stop-color="#000000"/>
		</radialGradient>
		<radialGradient id="g9" cx="0" cy="0" r="1" gradientUnits="userSpaceOnUse" gradientTransform="matrix(384.773,0,0,384.773,1204.986,322.091)">
			<stop offset=".222" stop-color="#a7cccc"/>
			<stop offset="1" stop-color="#ffffff"/>
		</radialGradient>
		<linearGradient id="g10" x2="1" gradientUnits="userSpaceOnUse" gradientTransform="matrix(188.002,-143.949,143.949,188.002,917.85,139.615)">
			<stop offset="0" stop-color="#294f4f"/>
			<stop offset="1" stop-color="#c5ebeb"/>
		</linearGradient>
		<radialGradient id="g11" cx="0" cy="0" r="1" gradientUnits="userSpaceOnUse" gradientTransform="matrix(19.919,139.455,-139.455,19.919,1224.195,184.981)">
			<stop offset="0" stop-color="#d9ffff"/>
			<stop offset=".292" stop-color="#739999"/>
			<stop offset="1" stop-color="#000000"/>
		</radialGradient>
		<radialGradient id="g12" cx="0" cy="0" r="1" gradientUnits="userSpaceOnUse" gradientTransform="matrix(32.243,137.126,-137.126,32.243,1170.425,.02)">
			<stop offset="0" stop-color="#d9ffff"/>
			<stop offset=".292" stop-color="#739999"/>
			<stop offset="1" stop-color="#000000"/>
		</radialGradient>
		<radialGradient id="g13" cx="0" cy="0" r="1" gradientUnits="userSpaceOnUse" gradientTransform="matrix(164.541,0,0,164.541,2401.894,1445.727)">
			<stop offset=".222" stop-color="#76d0d0"/>
			<stop offset="1" stop-color="#ffffff"/>
		</radialGradient>
		<linearGradient id="g14" x2="1" gradientUnits="userSpaceOnUse" gradientTransform="matrix(80.395,-61.557,61.557,80.395,2279.107,1367.695)">
			<stop offset="0" stop-color="#004f4f"/>
			<stop offset="1" stop-color="#8debeb"/>
		</linearGradient>
		<radialGradient id="g15" cx="0" cy="0" r="1" gradientUnits="userSpaceOnUse" gradientTransform="matrix(8.518,59.635,-59.635,8.518,2410.108,1387.095)">
			<stop offset="0" stop-color="#a1ffff"/>
			<stop offset=".292" stop-color="#3b9999"/>
			<stop offset="1" stop-color="#000000"/>
		</radialGradient>
		<radialGradient id="g16" cx="0" cy="0" r="1" gradientUnits="userSpaceOnUse" gradientTransform="matrix(13.052,58.809,-58.809,13.052,2382,1309.507)">
			<stop offset="0" stop-color="#a1ffff"/>
			<stop offset=".292" stop-color="#3b9999"/>
			<stop offset="1" stop-color="#000000"/>
		</radialGradient>
		<radialGradient id="g17" cx="0" cy="0" r="1" gradientUnits="userSpaceOnUse" gradientTransform="matrix(412.964,0,0,412.964,1671.212,1348.488)">
			<stop offset=".222" stop-color="#76d0d0"/>
			<stop offset="1" stop-color="#ffffff"/>
		</radialGradient>
		<linearGradient id="g18" x2="1" gradientUnits="userSpaceOnUse" gradientTransform="matrix(228.863,-175.236,175.235,228.863,1321.671,1139.771)">
			<stop offset="0" stop-color="#004f4f"/>
			<stop offset="1" stop-color="#8debeb"/>
		</linearGradient>
		<radialGradient id="g19" cx="0" cy="0" r="1" gradientUnits="userSpaceOnUse" gradientTransform="matrix(24.249,169.765,-169.765,24.249,1694.597,1194.997)">
			<stop offset="0" stop-color="#a1ffff"/>
			<stop offset=".292" stop-color="#3b9999"/>
			<stop offset="1" stop-color="#000000"/>
		</radialGradient>
		<radialGradient id="g20" cx="0" cy="0" r="1" gradientUnits="userSpaceOnUse" gradientTransform="matrix(37.154,167.412,-167.412,37.154,1614.581,974.127)">
			<stop offset="0" stop-color="#a1ffff"/>
			<stop offset=".292" stop-color="#3b9999"/>
			<stop offset="1" stop-color="#000000"/>
		</radialGradient>
		<radialGradient id="g21" cx="0" cy="0" r="1" gradientUnits="userSpaceOnUse" gradientTransform="matrix(107.186,0,0,107.186,202.872,196.09)">
			<stop offset=".222" stop-color="#76d0d0"/>
			<stop offset="1" stop-color="#ffffff"/>
		</radialGradient>
		<linearGradient id="g22" x2="1" gradientUnits="userSpaceOnUse" gradientTransform="matrix(52.371,-40.099,40.099,52.371,122.886,145.258)">
			<stop offset="0" stop-color="#004f4f"/>
			<stop offset="1" stop-color="#8debeb"/>
		</linearGradient>
		<radialGradient id="g23" cx="0" cy="0" r="1" gradientUnits="userSpaceOnUse" gradientTransform="matrix(5.549,38.848,-38.848,5.549,208.224,157.895)">
			<stop offset="0" stop-color="#a1ffff"/>
			<stop offset=".292" stop-color="#3b9999"/>
			<stop offset="1" stop-color="#000000"/>
		</radialGradient>
		<radialGradient id="g24" cx="0" cy="0" r="1" gradientUnits="userSpaceOnUse" gradientTransform="matrix(8.502,38.309,-38.309,8.502,189.913,107.353)">
			<stop offset="0" stop-color="#a1ffff"/>
			<stop offset=".292" stop-color="#3b9999"/>
			<stop offset="1" stop-color="#000000"/>
		</radialGradient>
		<radialGradient id="g25" cx="0" cy="0" r="1" gradientUnits="userSpaceOnUse" gradientTransform="matrix(80.062,0,0,80.062,2317.927,913.478)">
			<stop offset=".222" stop-color="#adadad"/>
			<stop offset="1" stop-color="#ffffff"/>
		</radialGradient>
		<linearGradient id="g26" x2="1" gradientUnits="userSpaceOnUse" gradientTransform="matrix(39.118,-29.952,29.952,39.118,2258.181,875.508)">
			<stop offset="0" stop-color="#3c3c3c"/>
			<stop offset="1" stop-color="#d8d8d8"/>
		</linearGradient>
		<radialGradient id="g27" cx="0" cy="0" r="1" gradientUnits="userSpaceOnUse" gradientTransform="matrix(4.145,29.017,-29.017,4.145,2321.924,884.948)">
			<stop offset="0" stop-color="#ececec"/>
			<stop offset=".292" stop-color="#868686"/>
			<stop offset="1" stop-color="#000000"/>
		</radialGradient>
		<radialGradient id="g28" cx="0" cy="0" r="1" gradientUnits="userSpaceOnUse" gradientTransform="matrix(6.709,28.533,-28.533,6.709,2310.735,846.462)">
			<stop offset="0" stop-color="#ececec"/>
			<stop offset=".292" stop-color="#868686"/>
			<stop offset="1" stop-color="#000000"/>
		</radialGradient>
		<radialGradient id="g29" cx="0" cy="0" r="1" gradientUnits="userSpaceOnUse" gradientTransform="matrix(464.807,0,0,464.807,441.52,832.369)">
			<stop offset=".222" stop-color="#adadad"/>
			<stop offset="1" stop-color="#ffffff"/>
		</radialGradient>
		<linearGradient id="g30" x2="1" gradientUnits="userSpaceOnUse" gradientTransform="matrix(227.107,-173.891,173.891,227.107,94.66,611.937)">
			<stop offset="0" stop-color="#3c3c3c"/>
			<stop offset="1" stop-color="#d8d8d8"/>
		</linearGradient>
		<radialGradient id="g31" cx="0" cy="0" r="1" gradientUnits="userSpaceOnUse" gradientTransform="matrix(24.063,168.462,-168.462,24.063,464.724,666.74)">
			<stop offset="0" stop-color="#ececec"/>
			<stop offset=".292" stop-color="#868686"/>
			<stop offset="1" stop-color="#000000"/>
		</radialGradient>
		<radialGradient id="g32" cx="0" cy="0" r="1" gradientUnits="userSpaceOnUse" gradientTransform="matrix(38.95,165.649,-165.649,38.95,399.77,443.307)">
			<stop offset="0" stop-color="#ececec"/>
			<stop offset=".292" stop-color="#868686"/>
			<stop offset="1" stop-color="#000000"/>
		</radialGradient>
		<radialGradient id="g33" cx="0" cy="0" r="1" gradientUnits="userSpaceOnUse" gradientTransform="matrix(188.68,0,0,188.68,879.399,1500.618)">
			<stop offset=".222" stop-color="#adadad"/>
			<stop offset="1" stop-color="#ffffff"/>
		</radialGradient>
		<linearGradient id="g34" x2="1" gradientUnits="userSpaceOnUse" gradientTransform="matrix(92.19,-70.588,70.588,92.19,738.597,1411.137)">
			<stop offset="0" stop-color="#3c3c3c"/>
			<stop offset="1" stop-color="#d8d8d8"/>
		</linearGradient>
		<radialGradient id="g35" cx="0" cy="0" r="1" gradientUnits="userSpaceOnUse" gradientTransform="matrix(9.768,68.384,-68.384,9.768,888.819,1433.383)">
			<stop offset="0" stop-color="#ececec"/>
			<stop offset=".292" stop-color="#868686"/>
			<stop offset="1" stop-color="#000000"/>
		</radialGradient>
		<radialGradient id="g36" cx="0" cy="0" r="1" gradientUnits="userSpaceOnUse" gradientTransform="matrix(15.811,67.242,-67.242,15.811,862.451,1342.684)">
			<stop offset="0" stop-color="#ececec"/>
			<stop offset=".292" stop-color="#868686"/>
			<stop offset="1" stop-color="#000000"/>
		</radialGradient>
	</defs>
	<style>
		.s0 { fill: #ffffff } 
		.s1 { opacity: .7;mix-blend-mode: multiply;fill: url(#g1) } 
		.s2 { fill: url(#g2) } 
		.s3 { mix-blend-mode: screen;fill: url(#g3) } 
		.s4 { mix-blend-mode: screen;fill: url(#g4) } 
		.s5 { opacity: .7;mix-blend-mode: multiply;fill: url(#g5) } 
		.s6 { fill: url(#g6) } 
		.s7 { mix-blend-mode: screen;fill: url(#g7) } 
		.s8 { mix-blend-mode: screen;fill: url(#g8) } 
		.s9 { opacity: .7;mix-blend-mode: multiply;fill: url(#g9) } 
		.s10 { fill: url(#g10) } 
		.s11 { mix-blend-mode: screen;fill: url(#g11) } 
		.s12 { mix-blend-mode: screen;fill: url(#g12) } 
		.s13 { opacity: .7;mix-blend-mode: multiply;fill: url(#g13) } 
		.s14 { fill: url(#g14) } 
		.s15 { mix-blend-mode: screen;fill: url(#g15) } 
		.s16 { mix-blend-mode: screen;fill: url(#g16) } 
		.s17 { opacity: .7;mix-blend-mode: multiply;fill: url(#g17) } 
		.s18 { fill: url(#g18) } 
		.s19 { mix-blend-mode: screen;fill: url(#g19) } 
		.s20 { mix-blend-mode: screen;fill: url(#g20) } 
		.s21 { opacity: .7;mix-blend-mode: multiply;fill: url(#g21) } 
		.s22 { fill: url(#g22) } 
		.s23 { mix-blend-mode: screen;fill: url(#g23) } 
		.s24 { mix-blend-mode: screen;fill: url(#g24) } 
		.s25 { opacity: .7;mix-blend-mode: multiply;fill: url(#g25) } 
		.s26 { fill: url(#g26) } 
		.s27 { mix-blend-mode: screen;fill: url(#g27) } 
		.s28 { mix-blend-mode: screen;fill: url(#g28) } 
		.s29 { opacity: .7;mix-blend-mode: multiply;fill: url(#g29) } 
		.s30 { fill: url(#g30) } 
		.s31 { mix-blend-mode: screen;fill: url(#g31) } 
		.s32 { mix-blend-mode: screen;fill: url(#g32) } 
		.s33 { opacity: .7;mix-blend-mode: multiply;fill: url(#g33) } 
		.s34 { fill: url(#g34) } 
		.s35 { mix-blend-mode: screen;fill: url(#g35) } 
		.s36 { mix-blend-mode: screen;fill: url(#g36) } 
		.s37 { mix-blend-mode: multiply;fill: #3a9898 } 
		.s38 { mix-blend-mode: multiply;fill: #999999 } 
	</style>
	<g id="_Artboards_">
	</g>
	<g id="Layer 1">
		<g id="&lt;Group&gt;">
			<path id="&lt;Path&gt;" class="s0" d="m2598.1 1732.1h-2598.1v-1732.1h2598.1z"/>
			<g id="&lt;Clip Group&gt;" clip-path="url(#cp1)">
				<g id="&lt;Group&gt;">
					<g id="&lt;Group&gt;">
						<path id="&lt;Path&gt;" class="s1" d="m2638.5 496.5c0 234.9-190.4 425.3-425.3 425.3-234.9 0-425.3-190.4-425.3-425.3 0-234.9 190.4-425.3 425.3-425.3 234.9 0 425.3 190.4 425.3 425.3z"/>
						<g id="&lt;Group&gt;">
							<path id="&lt;Mesh&gt;" class="s2" d="m1988.1 514c40.7 40.9 92.7 70.2 148.7 84.1-15.8-47.4-18.5-100.9-25.7-150.1-63.6-4.2-130.8-11.9-190.7-34.7 15.7 37.2 38.6 71.5 67.7 100.7zm-67.7-100.7c59.9 22.8 127.1 30.5 190.7 34.7-7-48.1-11.9-101.8-13.5-155.8-67.3 0.6-135.1 5.3-202.4 1.8 0.7 41.2 9.3 81.7 25.2 119.3zm-25.2-119.3c67.3 3.5 135.1-1.2 202.4-1.8-1.6-54.1 0-108.5 5.9-157.6-61.9 5.8-126.3 15.4-185.1 35.8-16.4 40.4-23.8 82.3-23.2 123.6zm23.2-123.6c58.8-20.4 123.2-30 185.1-35.8 5.9-49.4 8.4-103.9 24-151.4-51.9 14.6-100 42.3-138.9 81.1-30.3 30.2-54.2 66.5-70.2 106.1zm218.4 427.7c54.4 13.5 110.2 12 162.1-2.5 13-48.9 17.3-100.9 22.9-151.1-65.4 5.2-143.3 9.1-210.7 3.5 7.2 49.2 9.9 102.7 25.7 150.1zm-25.7-150.1c67.4 5.6 145.3 1.7 210.7-3.5 5.5-48.5 6.9-102.9 5.5-157.2-66.1-0.7-163 4.1-229.7 4.9 1.6 54 6.5 107.7 13.5 155.8zm-13.5-155.8c66.7-0.8 163.6-5.6 229.7-4.9-1.5-54.5-5.8-108.9-12.1-156.9-64.2-6.4-148.7-4.4-211.7 4.2-5.9 49.1-7.5 103.5-5.9 157.6zm5.9-157.6c63-8.6 147.5-10.6 211.7-4.2-6.4-49.6-11.3-100.8-23.9-149.2-54.9-14-111.3-12.7-163.8 2-15.6 47.5-18.1 102-24 151.4zm195.4 461c51.9-14.6 100-42.2 138.9-81.1 30.8-30.7 55.1-67.8 71.1-108.3-59.1 22.8-124.4 31.6-187.1 38.3-5.6 50.2-9.9 102.2-22.9 151.1zm22.9-151.1c62.7-6.7 128-15.5 187.1-38.3 15.9-40 23-81.5 22.3-122.4-67.7 4.6-136.1 1.7-203.9 3.5 1.4 54.3 0 108.7-5.5 157.2zm5.5-157.2c67.8-1.8 136.2 1.1 203.9-3.5-0.8-40.8-9.4-81-25.2-118.2-60.8-21.7-126.9-28.9-190.8-35.2 6.3 48 10.6 102.4 12.1 156.9zm-12.1-156.9c63.9 6.3 130 13.5 190.8 35.2-15.7-37.3-38.5-71.6-67.7-100.8-40.3-40.5-91.7-69.5-147-83.6 12.6 48.4 17.5 99.6 23.9 149.2z"/>
							<path id="&lt;Path&gt;" class="s3" d="m2256.4 499.1c-112.8 16.1-214.2-39.8-226.4-124.9-12.1-85.2 69.5-167.3 182.4-183.4 112.9-16.1 214.3 39.8 226.4 125 12.2 85.1-69.5 167.2-182.4 183.3z"/>
							<path id="&lt;Path&gt;" class="s4" d="m2210.6 292.1c-111 26.1-216.9-20.6-236.6-104.3-19.7-83.7 54.4-172.8 165.4-198.8 111-26.1 216.9 20.6 236.6 104.3 19.7 83.7-54.4 172.7-165.4 198.8z"/>
						</g>
					</g>
					<g id="&lt;Group&gt;">
						<path id="&lt;Path&gt;" class="s5" d="m488.3 1758.7c0 198.1-160.6 358.7-358.7 358.7-198.1 0-358.6-160.6-358.6-358.7 0-198.1 160.5-358.6 358.6-358.6 198.1 0 358.7 160.5 358.7 358.6z"/>
						<g id="&lt;Group&gt;">
							<path id="&lt;Mesh&gt;" class="s6" d="m-60.2 1773.5c34.3 34.4 78.2 59.1 125.4 70.9-13.3-40-15.6-85.1-21.7-126.6-53.6-3.6-110.3-10-160.8-29.3 13.3 31.4 32.5 60.4 57.1 85zm-57.1-85c50.5 19.3 107.2 25.7 160.8 29.3-5.9-40.5-10-85.9-11.4-131.4-56.7 0.5-113.9 4.5-170.6 1.5 0.5 34.8 7.8 68.9 21.2 100.6zm-21.2-100.6c56.7 3 113.9-1 170.6-1.5-1.3-45.6 0-91.5 5-132.9-52.2 4.9-106.5 13-156.1 30.2-13.8 34-20 69.4-19.5 104.2zm19.5-104.2c49.6-17.2 103.9-25.3 156.1-30.2 5-41.7 7.1-87.6 20.2-127.6-43.7 12.3-84.3 35.6-117.1 68.3-25.5 25.5-45.7 56.1-59.2 89.5zm184.2 360.7c45.8 11.4 92.9 10.1 136.7-2.2 10.9-41.2 14.6-85 19.3-127.4-55.2 4.5-120.8 7.7-177.7 3 6.1 41.5 8.4 86.6 21.7 126.6zm-21.7-126.6c56.9 4.7 122.5 1.5 177.7-3 4.6-40.8 5.8-86.7 4.6-132.5-55.7-0.6-137.5 3.4-193.7 4.1 1.4 45.5 5.5 90.9 11.4 131.4zm-11.4-131.4c56.2-0.7 138-4.7 193.7-4.1-1.2-46-4.9-91.8-10.1-132.3-54.2-5.4-125.5-3.8-178.6 3.5-5 41.4-6.3 87.3-5 132.9zm5-132.9c53.1-7.3 124.4-8.9 178.6-3.5-5.5-41.9-9.6-85-20.2-125.9-46.3-11.8-93.9-10.6-138.2 1.8-13.1 40-15.2 85.9-20.2 127.6zm164.8 388.7c43.8-12.2 84.3-35.5 117.1-68.3 26-25.9 46.5-57.2 60-91.3-49.8 19.2-104.9 26.6-157.8 32.2-4.7 42.4-8.4 86.2-19.3 127.4zm19.3-127.4c52.9-5.6 108-13 157.8-32.2 13.3-33.8 19.4-68.8 18.7-103.2-57 3.8-114.7 1.3-171.9 2.9 1.2 45.8 0 91.7-4.6 132.5zm4.6-132.5c57.2-1.6 114.9 0.9 171.9-2.9-0.6-34.5-7.9-68.4-21.2-99.8-51.2-18.2-107-24.3-160.8-29.6 5.2 40.5 8.9 86.3 10.1 132.3zm-10.1-132.3c53.8 5.3 109.6 11.4 160.8 29.6-13.2-31.4-32.5-60.3-57-85-34.1-34.1-77.4-58.6-124-70.5 10.6 40.9 14.7 84 20.2 125.9z"/>
							<path id="&lt;Path&gt;" class="s7" d="m166.1 1760.9c-95.2 13.6-180.7-33.6-190.9-105.4-10.3-71.8 58.6-141 153.7-154.6 95.2-13.6 180.7 33.6 191 105.4 10.2 71.8-58.6 141-153.8 154.6z"/>
							<path id="&lt;Path&gt;" class="s8" d="m127.4 1586.3c-93.6 22-182.9-17.4-199.5-87.9-16.6-70.6 45.8-145.7 139.4-167.7 93.6-22 183 17.4 199.6 88 16.6 70.5-45.9 145.6-139.5 167.6z"/>
						</g>
					</g>
					<g id="&lt;Group&gt;">
						<path id="&lt;Path&gt;" class="s9" d="m1589.8 322.1c0 212.5-172.3 384.8-384.8 384.8-212.5 0-384.8-172.3-384.8-384.8 0-212.5 172.3-384.8 384.8-384.8 212.5 0 384.8 172.3 384.8 384.8z"/>
						<g id="&lt;Group&gt;">
							<path id="&lt;Mesh&gt;" class="s10" d="m1001.3 337.9c36.9 37 83.9 63.5 134.6 76.1-14.3-42.9-16.7-91.3-23.3-135.8-57.5-3.9-118.3-10.8-172.5-31.5 14.2 33.7 34.9 64.8 61.2 91.2zm-61.2-91.2c54.2 20.7 115 27.6 172.5 31.5-6.4-43.5-10.7-92.1-12.2-141-60.9 0.6-122.3 4.8-183.1 1.7 0.6 37.2 8.4 73.9 22.8 107.8zm-22.8-107.8c60.8 3.1 122.2-1.1 183.1-1.7-1.5-48.9 0-98.1 5.3-142.6-56 5.3-114.3 13.9-167.5 32.4-14.7 36.6-21.5 74.5-20.9 111.9zm20.9-111.9c53.2-18.5 111.5-27.1 167.5-32.4 5.4-44.7 7.7-94 21.7-136.9-46.9 13.2-90.4 38.2-125.6 73.3-27.4 27.3-49 60.2-63.6 96zm197.7 387c49.2 12.2 99.6 10.9 146.6-2.3 11.7-44.2 15.7-91.3 20.8-136.7-59.2 4.8-129.7 8.3-190.7 3.2 6.6 44.5 9 92.9 23.3 135.8zm-23.3-135.8c61 5.1 131.5 1.6 190.7-3.2 4.9-43.8 6.2-93.1 4.9-142.2-59.8-0.6-147.5 3.7-207.8 4.4 1.5 48.9 5.8 97.5 12.2 141zm-12.2-141c60.3-0.7 148-5 207.8-4.4-1.3-49.3-5.3-98.5-10.9-141.9-58.2-5.8-134.6-4.1-191.6 3.7-5.3 44.5-6.8 93.7-5.3 142.6zm5.3-142.6c57-7.8 133.4-9.5 191.6-3.7-5.8-44.9-10.2-91.2-21.7-135.1-49.7-12.6-100.7-11.4-148.2 1.9-14 42.9-16.3 92.2-21.7 136.9zm176.8 417.1c47-13.2 90.5-38.2 125.7-73.3 27.9-27.8 49.8-61.4 64.3-98-53.4 20.6-112.5 28.6-169.2 34.6-5.1 45.4-9.1 92.5-20.8 136.7zm20.8-136.7c56.7-6 115.8-14 169.2-34.6 14.4-36.2 20.8-73.8 20.1-110.7-61.2 4.1-123 1.4-184.4 3.1 1.3 49.1 0 98.4-4.9 142.2zm4.9-142.2c61.4-1.7 123.2 1 184.4-3.1-0.6-37-8.5-73.3-22.7-107-55-19.6-114.8-26.1-172.6-31.8 5.6 43.4 9.6 92.6 10.9 141.9zm-10.9-141.9c57.8 5.7 117.6 12.2 172.6 31.8-14.2-33.7-34.9-64.8-61.2-91.2-36.5-36.6-83-62.9-133.1-75.7 11.5 43.9 15.9 90.2 21.7 135.1z"/>
							<path id="&lt;Path&gt;" class="s11" d="m1244.1 324.4c-102.1 14.6-193.8-36-204.8-113-11-77 62.8-151.3 165-165.9 102.1-14.6 193.8 36 204.8 113.1 11 77-62.9 151.2-165 165.8z"/>
							<path id="&lt;Path&gt;" class="s12" d="m1202.7 137.2c-100.5 23.5-196.3-18.7-214.1-94.4-17.8-75.8 49.2-156.3 149.6-179.9 100.4-23.6 196.2 18.6 214.1 94.4 17.8 75.7-49.2 156.2-149.6 179.9z"/>
						</g>
					</g>
					<g id="&lt;Group&gt;">
						<path id="&lt;Path&gt;" class="s13" d="m2566.4 1445.7c0 90.9-73.6 164.6-164.5 164.6-90.9 0-164.5-73.7-164.5-164.6 0-90.8 73.6-164.5 164.5-164.5 90.9 0 164.5 73.7 164.5 164.5z"/>
						<g id="&lt;Group&gt;">
							<path id="&lt;Mesh&gt;" class="s14" d="m2314.8 1452.5c15.8 15.8 35.9 27.1 57.5 32.5-6.1-18.3-7.1-39-9.9-58.1-24.6-1.6-50.6-4.6-73.8-13.4 6.1 14.4 14.9 27.7 26.2 39zm-26.2-39c23.2 8.8 49.2 11.8 73.8 13.4-2.7-18.5-4.6-39.3-5.2-60.2-26.1 0.2-52.3 2-78.3 0.7 0.2 15.9 3.6 31.6 9.7 46.1zm-9.7-46.1c26 1.3 52.2-0.5 78.3-0.7-0.7-21 0-42 2.2-61-23.9 2.3-48.8 5.9-71.6 13.9-6.3 15.6-9.2 31.8-8.9 47.8zm8.9-47.8c22.8-8 47.7-11.6 71.6-13.9 2.3-19.1 3.3-40.2 9.3-58.6-20.1 5.7-38.6 16.4-53.7 31.4-11.7 11.7-21 25.7-27.2 41.1zm84.5 165.4c21.1 5.2 42.7 4.7 62.8-1 5-18.9 6.7-39 8.8-58.4-25.3 2-55.4 3.5-81.5 1.3 2.8 19.1 3.8 39.8 9.9 58.1zm-9.9-58.1c26.1 2.2 56.2 0.7 81.5-1.3 2.1-18.8 2.7-39.8 2.1-60.8-25.5-0.3-63 1.5-88.8 1.9 0.6 20.9 2.5 41.7 5.2 60.2zm-5.2-60.2c25.8-0.4 63.3-2.2 88.8-1.9-0.5-21.1-2.2-42.1-4.6-60.7-24.9-2.5-57.6-1.7-82 1.6-2.2 19-2.9 40-2.2 61zm2.2-61c24.4-3.3 57.1-4.1 82-1.6-2.5-19.2-4.4-39-9.3-57.8-21.2-5.4-43.1-4.9-63.4 0.8-6 18.4-7 39.5-9.3 58.6zm75.7 178.3c20-5.6 38.6-16.3 53.7-31.3 11.9-11.9 21.3-26.3 27.5-41.9-22.9 8.8-48.1 12.2-72.4 14.8-2.1 19.4-3.8 39.5-8.8 58.4zm8.8-58.4c24.3-2.6 49.5-6 72.4-14.8 6.1-15.5 8.9-31.6 8.6-47.4-26.2 1.8-52.6 0.7-78.9 1.4 0.6 21 0 42-2.1 60.8zm2.1-60.8c26.3-0.7 52.7 0.4 78.9-1.4-0.3-15.8-3.6-31.3-9.7-45.7-23.5-8.4-49.1-11.2-73.8-13.6 2.4 18.6 4.1 39.6 4.6 60.7zm-4.6-60.7c24.7 2.4 50.3 5.2 73.8 13.6-6.1-14.4-14.9-27.7-26.2-39-15.6-15.7-35.5-26.9-56.9-32.4 4.9 18.8 6.8 38.6 9.3 57.8z"/>
							<path id="&lt;Path&gt;" class="s15" d="m2418.6 1446.7c-43.6 6.3-82.9-15.4-87.6-48.3-4.7-32.9 26.9-64.7 70.6-70.9 43.7-6.3 82.9 15.4 87.6 48.3 4.7 32.9-26.9 64.7-70.6 70.9z"/>
							<path id="&lt;Path&gt;" class="s16" d="m2395.1 1368.3c-43.1 9.6-83.9-9-91.1-41.5-7.2-32.5 21.9-66.6 64.9-76.1 43.1-9.6 83.9 9 91.1 41.5 7.2 32.5-21.9 66.5-64.9 76.1z"/>
						</g>
					</g>
					<g id="&lt;Group&gt;">
						<path id="&lt;Path&gt;" class="s17" d="m2084.2 1348.5c0 228.1-184.9 413-413 413-228.1 0-413-184.9-413-413 0-228.1 184.9-413 413-413 228.1 0 413 184.9 413 413z"/>
						<g id="&lt;Group&gt;">
							<path id="&lt;Mesh&gt;" class="s18" d="m1423.3 1381.2c44.9 45 102.1 77.2 163.8 92.6-17.4-52.3-20.4-111.1-28.3-165.4-70.1-4.6-144.1-13-210.1-38.2 17.4 41 42.5 78.8 74.6 111zm-74.6-111c66 25.2 140 33.6 210.1 38.2-7.8-52.9-13.1-112.1-14.9-171.5-74.1 0.6-148.8 5.8-222.9 2 0.7 45.3 10.2 89.9 27.7 131.3zm-27.7-131.3c74.1 3.8 148.8-1.4 222.9-2-1.8-59.6 0-119.5 6.4-173.6-68.1 6.4-139 16.9-203.8 39.4-18 44.5-26.2 90.7-25.5 136.2zm25.5-136.2c64.8-22.5 135.7-33 203.8-39.4 6.6-54.4 9.4-114.4 26.5-166.7-57.2 16-110.1 46.5-153 89.3-33.3 33.2-59.6 73.2-77.3 116.8zm240.6 471.1c59.9 14.8 121.3 13.2 178.5-2.8 14.3-53.8 19.1-111.1 25.3-166.4-72.1 5.8-157.9 10.1-232.1 3.8 7.9 54.3 10.9 113.1 28.3 165.4zm-28.3-165.4c74.2 6.3 160 2 232.1-3.8 5.9-53.4 7.5-113.3 6-173.1-72.8-0.8-179.6 4.4-253 5.4 1.8 59.4 7.1 118.6 14.9 171.5zm-14.9-171.5c73.4-1 180.2-6.2 253-5.4-1.6-60-6.4-119.9-13.3-172.8-70.8-7-163.9-4.9-233.3 4.6-6.4 54.1-8.2 114-6.4 173.6zm6.4-173.6c69.4-9.5 162.5-11.6 233.3-4.6-7.1-54.7-12.4-111-26.4-164.4-60.5-15.4-122.6-13.9-180.4 2.3-17.1 52.3-19.9 112.3-26.5 166.7zm215.3 507.7c57.2-16 110.1-46.5 153-89.3 33.9-33.8 60.6-74.7 78.3-119.2-65.1 25-137 34.8-206 42.1-6.2 55.3-11 112.6-25.3 166.4zm25.3-166.4c69-7.3 140.9-17.1 206-42.1 17.4-44.1 25.3-89.8 24.5-134.8-74.6 5-149.9 1.7-224.5 3.8 1.5 59.8-0.1 119.7-6 173.1zm6-173.1c74.6-2.1 149.9 1.2 224.5-3.8-0.8-45-10.3-89.3-27.7-130.3-67-23.9-139.7-31.8-210.1-38.7 6.9 52.9 11.7 112.8 13.3 172.8zm-13.3-172.8c70.4 6.9 143.1 14.8 210.1 38.7-17.3-41-42.5-78.8-74.5-111-44.5-44.6-101-76.6-162-92.1 14 53.4 19.3 109.7 26.4 164.4z"/>
							<path id="&lt;Path&gt;" class="s19" d="m1718.8 1364.8c-124.3 17.7-235.9-43.9-249.3-137.7-13.4-93.7 76.5-184.1 200.8-201.9 124.4-17.7 236 43.9 249.4 137.7 13.4 93.7-76.5 184.1-200.9 201.9z"/>
							<path id="&lt;Path&gt;" class="s20" d="m1651.7 1141.5c-122.6 27.2-238.6-25.7-259.1-118.1-20.6-92.5 62.2-189.5 184.8-216.7 122.6-27.2 238.6 25.7 259.2 118.2 20.5 92.4-62.3 189.4-184.9 216.6z"/>
						</g>
					</g>
					<g id="&lt;Group&gt;">
						<path id="&lt;Path&gt;" class="s21" d="m310.1 196.1c0 59.2-48 107.2-107.2 107.2-59.2 0-107.2-48-107.2-107.2 0-59.2 48-107.2 107.2-107.2 59.2 0 107.2 48 107.2 107.2z"/>
						<g id="&lt;Group&gt;">
							<path id="&lt;Mesh&gt;" class="s22" d="m146.1 200.5c10.3 10.3 23.4 17.7 37.5 21.2-4-12-4.6-25.4-6.5-37.8-16-1.1-32.9-3-48-8.8 3.9 9.4 9.7 18 17 25.4zm-17-25.4c15.1 5.8 32 7.7 48 8.8-1.7-12.2-3-25.7-3.4-39.3-16.9 0.1-34 1.3-51 0.4 0.2 10.4 2.4 20.6 6.4 30.1zm-6.4-30.1c17 0.9 34.1-0.3 51-0.4-0.4-13.6 0-27.3 1.5-39.7-15.6 1.4-31.8 3.8-46.6 9-4.1 10.2-6 20.7-5.9 31.1zm5.9-31.1c14.8-5.2 31-7.6 46.6-9 1.5-12.5 2.2-26.2 6.1-38.2-13.1 3.7-25.2 10.7-35 20.5-7.7 7.6-13.7 16.7-17.7 26.7zm55 107.8c13.7 3.4 27.8 3 40.9-0.6 3.2-12.4 4.3-25.5 5.8-38.1-16.5 1.3-36.2 2.3-53.2 0.9 1.9 12.4 2.5 25.8 6.5 37.8zm-6.5-37.8c17 1.4 36.7 0.4 53.2-0.9 1.3-12.2 1.7-26 1.3-39.6-16.6-0.2-41.1 1-57.9 1.2 0.4 13.6 1.7 27.1 3.4 39.3zm-3.4-39.3c16.8-0.2 41.3-1.4 57.9-1.2-0.3-13.8-1.4-27.5-3-39.6-16.2-1.6-37.5-1.1-53.4 1.1-1.5 12.4-1.9 26.1-1.5 39.7zm1.5-39.7c15.9-2.2 37.2-2.7 53.4-1.1-1.6-12.5-2.9-25.4-6-37.6-13.9-3.5-28.1-3.2-41.3 0.5-3.9 12-4.6 25.7-6.1 38.2zm49.3 116.2c13.1-3.7 25.2-10.7 35-20.5 7.7-7.7 13.9-17.1 17.9-27.3-14.9 5.8-31.4 8-47.1 9.7-1.5 12.6-2.6 25.7-5.8 38.1zm5.8-38.1c15.7-1.7 32.2-3.9 47.1-9.7 4-10 5.8-20.5 5.6-30.8-17.1 1.1-34.3 0.4-51.4 0.9 0.4 13.6 0 27.4-1.3 39.6zm1.3-39.6c17.1-0.5 34.3 0.2 51.4-0.9-0.2-10.3-2.4-20.4-6.3-29.8-15.4-5.5-32-7.3-48.1-8.9 1.6 12.1 2.7 25.8 3 39.6zm-3-39.6c16.1 1.6 32.7 3.4 48.1 8.9-4-9.4-9.7-18.1-17.1-25.4-10.2-10.2-23.1-17.5-37-21.1 3.1 12.2 4.4 25.1 6 37.6z"/>
							<path id="&lt;Path&gt;" class="s23" d="m213.8 196.7c-28.5 4.1-54-10-57.1-31.5-3.1-21.4 17.5-42.1 46-46.2 28.4-4 54 10.1 57 31.5 3.1 21.5-17.5 42.2-45.9 46.2z"/>
							<path id="&lt;Path&gt;" class="s24" d="m198.4 145.7c-28 6.2-54.6-5.9-59.3-27.1-4.7-21.1 14.3-43.3 42.3-49.6 28.1-6.2 54.6 5.9 59.3 27.1 4.7 21.1-14.2 43.3-42.3 49.6z"/>
						</g>
					</g>
					<g id="&lt;Group&gt;">
						<path id="&lt;Path&gt;" class="s25" d="m2398 913.5c0 44.2-35.9 80-80.1 80-44.2 0-80-35.8-80-80 0-44.2 35.8-80.1 80-80.1 44.2 0 80.1 35.9 80.1 80.1z"/>
						<g id="&lt;Group&gt;">
							<path id="&lt;Mesh&gt;" class="s26" d="m2275.5 916.8c7.7 7.7 17.5 13.2 28 15.8-2.9-8.9-3.4-19-4.8-28.3-12-0.8-24.6-2.2-35.9-6.5 3 7 7.3 13.5 12.7 19zm-12.7-19c11.3 4.3 23.9 5.7 35.9 6.5-1.3-9-2.2-19.1-2.5-29.3-12.7 0.1-25.5 1-38.1 0.4 0.1 7.7 1.7 15.3 4.7 22.4zm-4.7-22.4c12.6 0.6 25.4-0.3 38.1-0.4-0.3-10.2 0-20.4 1.1-29.7-11.7 1.1-23.8 2.9-34.9 6.8-3 7.6-4.4 15.5-4.3 23.3zm4.3-23.3c11.1-3.9 23.2-5.7 34.9-6.8 1.1-9.3 1.6-19.5 4.5-28.4-9.8 2.7-18.8 7.9-26.2 15.2-5.7 5.7-10.2 12.5-13.2 20zm41.1 80.5c10.3 2.5 20.8 2.3 30.6-0.5 2.4-9.2 3.2-19 4.3-28.4-12.3 1-27 1.7-39.7 0.6 1.4 9.3 1.9 19.4 4.8 28.3zm-4.8-28.3c12.7 1.1 27.4 0.4 39.7-0.6 1-9.1 1.3-19.4 1-29.6-12.4-0.1-30.7 0.8-43.2 0.9 0.3 10.2 1.2 20.3 2.5 29.3zm-2.5-29.3c12.5-0.1 30.8-1 43.2-0.9-0.3-10.3-1.1-20.5-2.3-29.5-12.1-1.2-28-0.9-39.8 0.7-1.1 9.3-1.4 19.5-1.1 29.7zm1.1-29.7c11.8-1.6 27.7-1.9 39.8-0.7-1.2-9.4-2.1-19-4.5-28.1-10.3-2.7-20.9-2.4-30.8 0.4-2.9 8.9-3.4 19.1-4.5 28.4zm36.8 86.8c9.7-2.7 18.8-7.9 26.1-15.2 5.8-5.8 10.4-12.8 13.4-20.4-11.1 4.3-23.4 5.9-35.2 7.2-1.1 9.4-1.9 19.2-4.3 28.4zm4.3-28.4c11.8-1.3 24.1-2.9 35.2-7.2 3-7.6 4.3-15.4 4.2-23.1-12.8 0.9-25.6 0.3-38.4 0.7 0.3 10.2 0 20.5-1 29.6zm1-29.6c12.8-0.4 25.6 0.2 38.4-0.7-0.2-7.7-1.8-15.2-4.7-22.2-11.5-4.1-23.9-5.5-36-6.6 1.2 9 2 19.2 2.3 29.5zm-2.3-29.5c12.1 1.1 24.5 2.5 36 6.6-3-7-7.3-13.5-12.8-19-7.6-7.6-17.3-13.1-27.7-15.7 2.4 9.1 3.3 18.7 4.5 28.1z"/>
							<path id="&lt;Path&gt;" class="s27" d="m2326.1 914c-21.3 3-40.4-7.5-42.7-23.6-2.2-16 13.1-31.4 34.4-34.5 21.2-3 40.3 7.5 42.6 23.6 2.3 16-13.1 31.4-34.3 34.5z"/>
							<path id="&lt;Path&gt;" class="s28" d="m2317.4 875c-20.9 4.9-40.8-3.9-44.5-19.6-3.7-15.8 10.2-32.6 31.1-37.5 20.9-4.9 40.9 3.9 44.6 19.7 3.7 15.7-10.3 32.5-31.2 37.4z"/>
						</g>
					</g>
					<g id="&lt;Group&gt;">
						<path id="&lt;Path&gt;" class="s29" d="m906.3 832.4c0 256.7-208.1 464.8-464.8 464.8-256.7 0-464.8-208.1-464.8-464.8 0-256.7 208.1-464.8 464.8-464.8 256.7 0 464.8 208.1 464.8 464.8z"/>
						<g id="&lt;Group&gt;">
							<path id="&lt;Mesh&gt;" class="s30" d="m195.5 851.5c44.5 44.7 101.3 76.6 162.5 91.9-17.2-51.9-20.2-110.3-28-164.1-69.6-4.6-143-13-208.5-37.9 17.2 40.7 42.2 78.2 74 110.1zm-74-110.1c65.5 24.9 138.9 33.3 208.5 37.9-7.8-52.5-13.1-111.2-14.8-170.2-73.6 0.6-147.7 5.7-221.2 1.9 0.7 45 10.2 89.3 27.5 130.4zm-27.5-130.4c73.5 3.8 147.6-1.3 221.2-1.9-1.8-59.2 0-118.6 6.4-172.3-67.6 6.4-138 16.8-202.3 39.2-17.8 44.1-26 89.9-25.3 135zm25.3-135c64.3-22.4 134.7-32.8 202.3-39.2 6.4-54 9.2-113.5 26.2-165.4-56.7 15.9-109.2 46.1-151.8 88.6-33.1 33-59.1 72.7-76.7 116zm238.7 467.4c59.5 14.7 120.4 13.1 177.2-2.8 14.1-53.4 18.9-110.2 25.1-165.1-71.6 5.7-156.7 10-230.3 3.8 7.8 53.8 10.8 112.2 28 164.1zm-28-164.1c73.6 6.2 158.7 1.9 230.3-3.8 5.9-53 7.5-112.4 5.9-171.7-72.2-0.9-178.2 4.3-251 5.3 1.7 59 7 117.7 14.8 170.2zm-14.8-170.2c72.8-1 178.8-6.2 251-5.3-1.6-59.6-6.4-119.1-13.2-171.6-70.2-6.9-162.5-4.8-231.4 4.6-6.4 53.7-8.2 113.1-6.4 172.3zm6.4-172.3c68.9-9.4 161.2-11.5 231.4-4.6-7-54.2-12.3-110.1-26.1-163.1-60.1-15.3-121.7-13.8-179.1 2.3-17 51.9-19.8 111.4-26.2 165.4zm213.6 503.8c56.7-15.9 109.3-46.1 151.8-88.6 33.7-33.5 60.2-74.1 77.7-118.3-64.6 24.9-135.9 34.5-204.4 41.8-6.2 54.9-11 111.7-25.1 165.1zm25.1-165.1c68.5-7.3 139.8-16.9 204.4-41.8 17.3-43.7 25.1-89.1 24.3-133.8-74 5-148.7 1.8-222.8 3.9 1.6 59.3 0 118.7-5.9 171.7zm5.9-171.7c74.1-2.1 148.8 1.1 222.8-3.9-0.8-44.6-10.2-88.5-27.4-129.2-66.5-23.7-138.7-31.6-208.6-38.5 6.8 52.5 11.6 112 13.2 171.6zm-13.2-171.6c69.9 6.9 142.1 14.8 208.6 38.5-17.3-40.7-42.2-78.3-74-110.2-44.1-44.2-100.2-76-160.7-91.4 13.8 53 19.1 108.9 26.1 163.1z"/>
							<path id="&lt;Path&gt;" class="s31" d="m488.8 835.2c-123.4 17.6-234.2-43.5-247.5-136.6-13.3-93 76-182.7 199.4-200.3 123.3-17.7 234.1 43.5 247.4 136.5 13.3 93-75.9 182.7-199.3 200.4z"/>
							<path id="&lt;Path&gt;" class="s32" d="m438.7 609c-121.3 28.5-237.1-22.6-258.6-114.1-21.5-91.5 59.4-188.8 180.7-217.3 121.3-28.5 237.1 22.6 258.6 114.1 21.5 91.4-59.4 188.7-180.7 217.3z"/>
						</g>
					</g>
					<g id="&lt;Group&gt;">
						<path id="&lt;Path&gt;" class="s33" d="m1068.1 1500.6c0 104.2-84.5 188.7-188.7 188.7-104.2 0-188.7-84.5-188.7-188.7 0-104.2 84.5-188.7 188.7-188.7 104.2 0 188.7 84.5 188.7 188.7z"/>
						<g id="&lt;Group&gt;">
							<path id="&lt;Mesh&gt;" class="s34" d="m779.5 1508.4c18.1 18.1 41.2 31.1 66 37.3-7-21.1-8.2-44.8-11.4-66.6-28.2-1.9-58-5.3-84.6-15.4 7 16.5 17.1 31.7 30 44.7zm-30-44.7c26.6 10.1 56.4 13.5 84.6 15.4-3.1-21.3-5.3-45.2-6-69.1-29.8 0.2-59.9 2.3-89.8 0.8 0.3 18.2 4.2 36.2 11.2 52.9zm-11.2-52.9c29.9 1.5 60-0.6 89.8-0.8-0.7-24 0-48.2 2.6-70-27.4 2.6-56 6.9-82.1 15.9-7.2 17.9-10.5 36.6-10.3 54.9zm10.3-54.9c26.1-9 54.7-13.3 82.1-15.9 2.6-21.9 3.8-46 10.7-67.1-23.1 6.5-44.4 18.7-61.7 36-13.4 13.4-24 29.5-31.1 47zm96.9 189.8c24.1 6 48.9 5.3 71.9-1.1 5.8-21.7 7.7-44.8 10.2-67.1-29 2.4-63.6 4.1-93.5 1.6 3.2 21.8 4.4 45.5 11.4 66.6zm-11.4-66.6c29.9 2.5 64.5 0.8 93.5-1.6 2.4-21.5 3-45.6 2.4-69.7-29.3-0.3-72.3 1.8-101.9 2.2 0.7 23.9 2.9 47.8 6 69.1zm-6-69.1c29.6-0.4 72.6-2.5 101.9-2.2-0.6-24.2-2.6-48.3-5.3-69.6-28.5-2.8-66-2-94 1.8-2.6 21.8-3.3 46-2.6 70zm2.6-70c28-3.8 65.5-4.6 94-1.8-2.9-22-5-44.7-10.7-66.2-24.3-6.2-49.3-5.6-72.6 0.9-6.9 21.1-8.1 45.2-10.7 67.1zm86.7 204.6c23.1-6.5 44.4-18.8 61.7-36 13.6-13.6 24.4-30.1 31.5-48-26.2 10.1-55.2 14-83 16.9-2.5 22.3-4.4 45.4-10.2 67.1zm10.2-67.1c27.8-2.9 56.8-6.8 83-16.9 7-17.8 10.2-36.2 9.9-54.3-30.1 2-60.4 0.7-90.5 1.5 0.6 24.1 0 48.2-2.4 69.7zm2.4-69.7c30.1-0.8 60.4 0.5 90.5-1.5-0.4-18.2-4.2-36-11.2-52.5-27-9.6-56.3-12.8-84.6-15.6 2.7 21.3 4.7 45.4 5.3 69.6zm-5.3-69.6c28.3 2.8 57.6 6 84.6 15.6-7-16.5-17.1-31.8-30-44.7-17.9-18-40.7-30.9-65.3-37.1 5.7 21.5 7.8 44.2 10.7 66.2z"/>
							<path id="&lt;Path&gt;" class="s35" d="m898.6 1501.8c-50.1 7.1-95.1-17.7-100.5-55.5-5.4-37.7 30.9-74.2 80.9-81.3 50.1-7.2 95.1 17.7 100.5 55.4 5.4 37.8-30.8 74.2-80.9 81.4z"/>
							<path id="&lt;Path&gt;" class="s36" d="m878.3 1409.9c-49.3 11.6-96.3-9.1-105-46.3-8.8-37.1 24.1-76.6 73.3-88.2 49.3-11.5 96.3 9.2 105 46.3 8.7 37.1-24.1 76.6-73.3 88.2z"/>
						</g>
					</g>
				</g>
			</g>
			<g id="&lt;Group&gt;" style="mix-blend-mode: screen">
			</g>
			<path id="&lt;Path&gt;" class="s37" d="m886.1 423.5c0 78.5-63.7 142.1-142.1 142.1-78.5 0-142.1-63.6-142.1-142.1 0-78.5 63.6-142.1 142.1-142.1 78.4 0 142.1 63.6 142.1 142.1z"/>
			<path id="&lt;Path&gt;" class="s38" d="m2086.2 1347.1c0 35.3-28.6 64-64 64-35.3 0-64-28.7-64-64 0-35.4 28.7-64 64-64 35.4 0 64 28.6 64 64z"/>
			<path id="&lt;Path&gt;" class="s38" d="m618 1168.8c0 17.7-14.3 32-32 32-17.6 0-32-14.3-32-32 0-17.7 14.4-32 32-32 17.7 0 32 14.3 32 32z"/>
			<path id="&lt;Path&gt;" class="s37" d="m2044.6 659.8c0 17.7-14.4 32-32 32-17.7 0-32-14.3-32-32 0-17.7 14.3-32 32-32 17.6 0 32 14.3 32 32z"/>
		</g>
	</g>
</svg>